Coordinates
version=1
nRows=10
nColumns=40
inDegrees=yes

Units are S.I. units (second, meters, Newtons, ...)
Angles are in degrees.

endheader
time	pelvis_tilt	pelvis_list	pelvis_rotation	pelvis_tx	pelvis_ty	pelvis_tz	hip_flexion_r	hip_adduction_r	hip_rotation_r	knee_angle_r	knee_angle_r_beta	ankle_angle_r	subtalar_angle_r	mtp_angle_r	hip_flexion_l	hip_adduction_l	hip_rotation_l	knee_angle_l	knee_angle_l_beta	ankle_angle_l	subtalar_angle_l	mtp_angle_l	lumbar_extension	lumbar_bending	lumbar_rotation	arm_flex_r	arm_add_r	arm_rot_r	elbow_flex_r	pro_sup_r	wrist_flex_r	wrist_dev_r	arm_flex_l	arm_add_l	arm_rot_l	elbow_flex_l	pro_sup_l	wrist_flex_l	wrist_dev_l
     13.65000000	     -4.56842813	     -6.30331797	      7.10862303	      1.10026116	      0.92078234	      0.47238725	      2.60763496	      4.29647823	    -18.00351994	     11.83803597	     11.83803597	     15.20642254	     -0.11070851	     -6.10041268	     30.79414759	     -8.94211617	     -0.86490855	     23.49224611	     23.49224611	      4.73739574	    -10.80157478	      6.18214372	     -9.94978170	      6.02427737	      3.56659609	     37.52404595	    -16.44295743	     -2.78343788	     97.05376291	     44.11059765	      0.00000000	      0.00000000	     -6.99406946	     -8.87636302	    -10.03381565	     25.07255054	     46.96326398	      0.00000000	      0.00000000
     13.66285714	     -4.60184660	     -6.33211453	      6.98758703	      1.10177538	      0.92004682	      0.47043129	      2.15899317	      4.22573730	    -17.84754465	     11.83725263	     11.83725263	     15.46950279	      0.00180311	     -6.08317825	     30.33193345	     -8.87504923	     -0.77051038	     24.02948041	     24.02948041	      4.58167284	    -10.97009275	      6.08933681	     -9.75044144	      5.89562019	      3.58523928	     37.27168533	    -16.26129483	     -2.76539209	     97.03144241	     44.11352327	      0.00000000	      0.00000000	     -6.98827186	     -8.90670589	    -10.05337961	     25.07716261	     46.96521393	      0.00000000	      0.00000000
     13.67571429	     -4.61240622	     -6.34443502	      6.93514005	      1.10319763	      0.91946521	      0.46827711	      1.70000683	      4.12664892	    -17.73455650	     11.84809631	     11.84809631	     15.69258651	      0.08462128	     -6.03412520	     29.95488378	     -8.75669507	     -0.58392835	     24.57145181	     24.57145181	      4.58707316	    -11.17038145	      5.93566753	     -9.60789458	      5.76127498	      3.52061936	     36.92244758	    -16.08165405	     -2.76769539	     96.93109387	     44.11871810	      0.00000000	      0.00000000	     -6.84329355	     -8.94058790	    -10.06332390	     25.12050480	     46.96823376	      0.00000000	      0.00000000
     13.68857143	     -4.58764125	     -6.33350596	      6.91024654	      1.10456269	      0.91913124	      0.46581467	      1.22072376	      3.97039729	    -17.66565574	     11.89432215	     11.89432215	     15.84540688	      0.16965927	     -5.88739145	     29.65627016	     -8.59418193	     -0.35555700	     25.17393039	     25.17393039	      4.70218118	    -11.50069552	      5.72596033	     -9.54435088	      5.66665852	      3.42279102	     36.40259925	    -15.89440991	     -2.84195836	     96.66966338	     44.13194805	      0.00000000	      0.00000000	     -6.60118794	     -9.00338817	    -10.07422005	     25.17859568	     46.97275369	      0.00000000	      0.00000000
     13.70142857	     -4.60207357	     -6.30858314	      6.92096868	      1.10580117	      0.91893619	      0.46322826	      0.82708006	      3.77978196	    -17.58952468	     11.99721257	     11.99721257	     15.95331955	      0.20018683	     -5.79074891	     29.40541664	     -8.39579659	     -0.10938328	     25.64076259	     25.64076259	      4.98199716	    -11.76229431	      5.51953736	     -9.45877503	      5.49677009	      3.26902814	     35.88148479	    -15.75372541	     -2.88006327	     96.37980365	     44.14305515	      0.00000000	      0.00000000	     -6.22948186	     -8.99872812	    -10.06318832	     25.29006035	     46.97626000	      0.00000000	      0.00000000
     13.71428571	     -4.52927037	     -6.25537994	      6.97360552	      1.10700805	      0.91903434	      0.46033789	      0.40015585	      3.52409920	    -17.57048474	     12.22890931	     12.22890931	     16.01939921	      0.19426270	     -5.64744083	     29.17322528	     -8.15806017	      0.14915641	     26.23453814	     26.23453814	      5.29034033	    -12.15698927	      5.32450226	     -9.46670406	      5.34936108	      3.14682978	     35.09176039	    -15.61064944	     -2.96169875	     95.83676208	     44.16319249	      0.00000000	      0.00000000	     -5.75634447	     -9.03585475	    -10.05245138	     25.42765762	     46.98141262	      0.00000000	      0.00000000
     13.72714286	     -4.60466392	     -6.21706273	      6.95490349	      1.10790536	      0.91906421	      0.45723813	      0.38393975	      3.14330140	    -17.61933064	     12.93680454	     12.93680454	     16.33603978	      0.34063258	     -5.09055922	     29.10041364	     -7.84025550	      0.60274448	     26.75397240	     26.75397240	      5.61731760	    -13.05824410	      5.43676705	     -9.27046863	      5.24125763	      3.45225471	     34.27482518	    -15.75509317	     -3.90585786	     94.00370511	     44.26342083	      0.00000000	      0.00000000	     -4.98727351	     -9.06813918	    -10.02404691	     25.51204722	     46.98310666	      0.00000000	      0.00000000
     13.74000000	     -4.54123862	     -6.18979578	      7.01174378	      1.10888464	      0.91950148	      0.45394271	      0.05433805	      2.85989535	    -17.63315802	     13.27000398	     13.27000398	     16.22973839	      0.29399087	     -4.97773628	     28.80473016	     -7.61460557	      0.75682841	     27.11219179	     27.11219179	      6.12296296	    -13.30187847	      5.25554049	     -9.38535862	      5.17608762	      3.13838284	     33.45404705	    -15.52976076	     -3.86912744	     93.54894097	     44.27568170	      0.00000000	      0.00000000	     -4.35884562	     -8.98932079	     -9.98096707	     25.71532545	     46.98527874	      0.00000000	      0.00000000
     13.75285714	     -4.36218525	     -6.15710400	      7.06746446	      1.10986600	      0.92011753	      0.45045823	     -0.23022602	      2.50799959	    -17.64087635	     13.95572238	     13.95572238	     16.20905960	      0.21541278	     -4.93434934	     28.43042254	     -7.38830971	      0.91591175	     27.56786665	     27.56786665	      6.60552519	    -13.62921280	      5.15480882	     -9.54452665	      5.18594286	      3.05186058	     32.28076636	    -15.39826674	     -3.90308405	     92.57944650	     44.30620362	      0.00000000	      0.00000000	     -3.65546857	     -8.98783500	     -9.94846259	     25.98182047	     46.98990339	      0.00000000	      0.00000000
     13.76571429	     -4.57030310	     -6.00403566	      6.91611501	      1.11036715	      0.92032695	      0.44690279	      0.44133610	      1.72081636	    -17.76136014	     15.71524649	     15.71524649	     16.56096056	      0.30236164	     -4.67704071	     28.32400812	     -6.98089377	      1.01589019	     27.82695214	     27.82695214	      7.22245887	    -14.18556538	      5.95556575	     -9.19236480	      4.98214473	      3.57936714	     31.48494880	    -15.59473214	     -5.06980535	     89.16628319	     44.46933002	      0.00000000	      0.00000000	     -2.64001812	     -8.93139457	     -9.78917747	     26.30730488	     46.96520895	      0.00000000	      0.00000000
